# xmcd CD database file
#
# Track frame offsets:
#	182
#	40910
#	54087
#	71732
#	106967
#	139725
#	156730
#	169092
#	193260
#	211957
#
# Disc length: 3614 seconds
#
# Revision: 0
# Processed by: cddbd v1.5.1PL0 Copyright (c) Steve Scherf et al.
# Submitted via: CDex 1.51
#
DISCID=930e1c0a
DTITLE=Crosby, Stills, Nash and Young - For what it's worth
DYEAR=1970
DGENRE=Country
TTITLE0=Suite: Judy blue eyes
TTITLE1=Blackbird
TTITLE2=Teach your children
TTITLE3=Black queen
TTITLE4=49 bye byes - For what it's worth
TTITLE5=Love the one you're with
TTITLE6=Pre-road downs
TTITLE7=Long time gone
TTITLE8=Ohio
TTITLE9=Southern Man
EXTD=YEAR: 1970
EXTT0=
EXTT1=
EXTT2=
EXTT3=
EXTT4=
EXTT5=
EXTT6=
EXTT7=
EXTT8=
EXTT9=
PLAYORDER=
